<?xml version="1.0" encoding="UTF-8"?>
<svg id="_Шар_2" data-name="Шар 2" xmlns="http://www.w3.org/2000/svg" xmlns:xlink="http://www.w3.org/1999/xlink" viewBox="0 0 495.31 530.77">
  <defs>
    <style>
      .cls-1 {
        fill: #fff;
        opacity: .56;
      }

      .cls-2 {
        fill: url(#_Градієнт_без_назви_17-2);
      }

      .cls-3 {
        fill: url(#_Градієнт_без_назви_21);
      }

      .cls-4 {
        fill: url(#_Градієнт_без_назви_11);
      }

      .cls-5 {
        fill: url(#_Градієнт_без_назви_17);
      }

      .cls-6 {
        fill: #dfdfdd;
      }
    </style>
    <linearGradient id="_Градієнт_без_назви_17" data-name="Градієнт без назви 17" x1="177.98" y1="54.22" x2="195.17" y2="258.48" gradientUnits="userSpaceOnUse">
      <stop offset=".07" stop-color="#f50203"/>
      <stop offset=".34" stop-color="#dc0203"/>
      <stop offset=".92" stop-color="#940202"/>
    </linearGradient>
    <linearGradient id="_Градієнт_без_назви_17-2" data-name="Градієнт без назви 17" x1="209.71" y1="51.55" x2="226.9" y2="255.81" xlink:href="#_Градієнт_без_назви_17"/>
    <linearGradient id="_Градієнт_без_назви_21" data-name="Градієнт без назви 21" x1="224.95" y1="355.95" x2="348.36" y2="225.54" gradientUnits="userSpaceOnUse">
      <stop offset=".07" stop-color="#f50203"/>
      <stop offset=".34" stop-color="#dc0203"/>
      <stop offset=".83" stop-color="#940202"/>
    </linearGradient>
    <linearGradient id="_Градієнт_без_назви_11" data-name="Градієнт без назви 11" x1="281.81" y1="34.76" x2="281.81" y2="226.46" gradientUnits="userSpaceOnUse">
      <stop offset=".19" stop-color="#dfdfdd"/>
      <stop offset=".3" stop-color="#dadad8"/>
      <stop offset=".41" stop-color="#cdcdcb"/>
      <stop offset=".53" stop-color="#b7b7b5"/>
      <stop offset=".65" stop-color="#989896"/>
      <stop offset=".77" stop-color="#71716f"/>
      <stop offset=".9" stop-color="#41413f"/>
      <stop offset=".98" stop-color="#1d1d1b"/>
    </linearGradient>
  </defs>
  <g id="_Шар_1-2" data-name="Шар 1">
    <g>
      <g>
        <path class="cls-6" d="m203.28,320.97v38.56l-28.77-20.32-5.8-4.09c-18.61-13.17-30.64-33.54-33.37-55.89h31.71c2.57,11.84,9.41,22.47,19.43,29.7l10.44,7.54,6.35,4.5Z"/>
        <polygon class="cls-1" points="241.7 348.2 241.7 386.67 210.48 364.61 210.48 326.06 241.7 348.2"/>
        <polygon class="cls-5" points="203.73 118.54 203.73 230.68 172.5 230.68 172.5 132.86 203.73 118.54"/>
        <polygon class="cls-2" points="210.48 51.41 177.88 105.07 210.48 90.05 210.48 230.68 241.7 230.68 241.7 26.24 241.7 0 210.48 51.41"/>
        <polygon class="cls-6" points="358.44 150.17 358.44 219.94 327.2 205.7 327.2 168.86 320.23 165.69 289 151.46 289 118.54 327.2 135.93 358.44 150.17"/>
        <g>
          <rect class="cls-6" x="173.98" y="201.87" width="30.73" height="104.71" transform="translate(443.57 64.88) rotate(90)"/>
          <polygon class="cls-6" points="165.75 135.96 165.75 269.59 134.51 269.59 134.51 150.28 165.75 135.96"/>
          <polygon class="cls-6" points="210.48 252.2 210.48 364.61 241.7 386.67 241.7 247.23 210.48 252.2"/>
        </g>
        <path class="cls-3" d="m341.92,252.37s-36.96-11.01-25.28.22c.37.34.71.7,1.04,1.06,10.47,11.12,7.67,25.57,7.67,25.57-2.57,11.84-10.18,22.47-20.2,29.7l-10.44,7.54-13.54,9.54v-64.87c-10.42-5.8-24.38-13.48-31.22-16.83v142.36l31.22-22.06v-.06l35.96-25.34,5.8-4.09c10.36-7.34,19.06-16.62,25.15-27.95,4.5-8.33,7.54-18.13,8.93-27.28l.18-2.47-15.26-25.06Z"/>
        <g>
          <path class="cls-4" d="m281.18,50.78l32.59,53.66-32.59-15.02v99.45c0,5.96,3.14,11.49,8.27,14.53l8.37,4.97-16.64,21.68-31.33-52.92V0l31.33,50.78Z"/>
          <path class="cls-6" d="m348.07,307.17c1.27-3.6,1.81-7.62,1.89-9.84.77-19.3-12.49-31.5-27.44-40.75-1.6-.99-3.21-1.97-4.83-2.93-13.06-7.75-27.76-15.18-40.93-22.8-17.24-9.99-26.09-24.62-26.85-44.4l-.03-9.27-.03-8.69-.02-22.43s.01.2.07.55c.34,2.77,2.23,15.54,9.75,28.74.37.63.73,1.25,1.11,1.87,8.78,14.43,22.47,23.08,36.91,31.05.05.03.09.05.16.09,7.54,4.16,16.16,8.89,23.53,13.32,7.66,4.62,15.37,9.43,22.1,15.26,8.01,6.94,12.13,17.44,13.55,27.73.6,4.32.65,8.52.26,12.66-.49,5.27-1.67,10.46-3.32,15.72-.77,2.45-1.64,4.87-2.62,7.24l-.77,1.84c-.41.97-.86,1.93-1.35,2.86l-1.13,2.16Z"/>
        </g>
      </g>
      <g>
        <g>
          <path class="cls-6" d="m38.52,416.07c2.7-1.82,4.28-2.38,7.93-2.38h5.71c4.84,0,6.9,1.98,6.9,8.09v26.09h6.5c1.11,0,1.75.63,1.75,1.75v7.22c0,1.11-.63,1.75-1.75,1.75h-6.5v8.88c0,1.19-.56,1.75-1.75,1.75h-8.41c-1.19,0-1.75-.56-1.75-1.75v-8.88H5.6c-3.25,0-5.08-1.9-5.08-4.84v-7.22c0-3.17.79-4.92,3.09-6.5l34.9-23.95Zm-24.27,31.81h32.92v-22.84c0-.55-.24-.79-.63-.79h-.56c-.56,0-1.03.24-1.67.63l-30.22,20.86c-.32.24-.48.56-.48.95v.63c0,.32.24.55.63.55Z"/>
          <path class="cls-6" d="m57.32,469.74h-8.41c-1.49,0-2.27-.79-2.27-2.27v-8.36H5.6c-3.46,0-5.6-2.06-5.6-5.37v-7.22c0-3.39.9-5.27,3.32-6.94l34.9-23.96c2.69-1.82,4.34-2.47,8.23-2.47h5.71c5.35,0,7.43,2.42,7.43,8.62v25.57h5.98c1.4,0,2.27.87,2.27,2.27v7.22c0,1.4-.87,2.27-2.27,2.27h-5.98v8.36c0,1.49-.79,2.27-2.27,2.27Zm-18.5-53.23l-34.9,23.95c-2.11,1.46-2.86,3.05-2.86,6.07v7.22c0,2.74,1.66,4.31,4.55,4.31h42.09v9.41c0,.9.32,1.22,1.22,1.22h8.41c.9,0,1.22-.32,1.22-1.22v-9.41h7.03c.82,0,1.22-.4,1.22-1.22v-7.22c0-.82-.4-1.22-1.22-1.22h-7.03v-26.62c0-5.58-1.67-7.56-6.37-7.56h-5.71c-3.64,0-5.1.57-7.63,2.29Zm8.88,31.9H14.25c-.67,0-1.16-.46-1.16-1.08v-.63c0-.56.24-1.04.69-1.37l30.24-20.87c.75-.47,1.3-.73,1.97-.73h.56c.56,0,1.16.35,1.16,1.32v23.37Zm-1.72-23.64c-.42,0-.81.2-1.39.55l-30.2,20.85c-.17.12-.25.29-.25.52v.63s.04.03.11.03h32.39v-22.32c0-.2-.04-.26-.04-.26h-.62Z"/>
        </g>
        <g>
          <path class="cls-6" d="m129.81,413.69c1.11,0,1.75.55,1.75,1.75v7.69c0,1.11-.63,1.75-1.75,1.75h-39.74c-2.86,0-4.2,1.35-4.2,4.28v2.7c0,2.86,1.27,4.04,4.2,4.04h29.66c8.88,0,13.88,5.08,13.88,13.96v6.42c0,8.17-4.92,12.93-14.04,12.93h-43.94c-1.19,0-1.75-.56-1.75-1.75v-7.69c0-1.11.56-1.75,1.75-1.75h41.64c2.78,0,4.2-1.35,4.2-4.28v-3.25c0-2.86-1.19-4.04-4.12-4.04h-29.74c-8.88,0-13.8-5.08-13.8-13.96v-5.87c0-8.17,4.84-12.93,13.96-12.93h42.04Z"/>
          <path class="cls-6" d="m119.57,469.74h-43.94c-1.49,0-2.27-.79-2.27-2.27v-7.69c0-1.44.83-2.27,2.27-2.27h41.64c2.54,0,3.68-1.16,3.68-3.76v-3.25c0-2.56-.97-3.52-3.6-3.52h-29.74c-9.11,0-14.33-5.28-14.33-14.49v-5.87c0-8.55,5.28-13.46,14.49-13.46h42.04c1.44,0,2.27.83,2.27,2.27v7.69c0,1.4-.87,2.27-2.27,2.27h-39.74c-2.58,0-3.68,1.12-3.68,3.76v2.7c0,2.53,1.03,3.52,3.68,3.52h29.66c9.16,0,14.41,5.28,14.41,14.49v6.42c0,8.55-5.31,13.46-14.57,13.46Zm-43.94-11.18c-.85,0-1.22.36-1.22,1.22v7.69c0,.9.32,1.22,1.22,1.22h43.94c8.71,0,13.51-4.4,13.51-12.4v-6.42c0-8.66-4.74-13.43-13.35-13.43h-29.66c-3.23,0-4.73-1.45-4.73-4.57v-2.7c0-3.19,1.59-4.81,4.73-4.81h39.74c.82,0,1.22-.4,1.22-1.22v-7.69c0-.86-.35-1.22-1.22-1.22h-42.04c-8.66,0-13.43,4.4-13.43,12.4v5.87c0,8.66,4.71,13.43,13.27,13.43h29.74c3.22,0,4.65,1.41,4.65,4.57v3.25c0,3.19-1.59,4.81-4.73,4.81h-41.64Z"/>
        </g>
        <g>
          <path class="cls-6" d="m153.04,413.69c1.19,0,1.75.55,1.75,1.75v20.7h11.02c5.39,0,6.74-.48,8.8-3.17l13.8-18.24c.56-.79.95-1.03,2.3-1.03h9.91c1.19,0,1.59,1.11.95,1.9l-15.39,19.91c-1.75,2.3-3.25,4.04-4.76,5.31,2.14,1.35,4.04,3.17,6.03,5.71l16.26,20.62c.63.63.32,2.06-1.03,2.06h-10.07c-1.27,0-1.75-.24-2.3-1.03l-14.67-18.8c-2.06-2.7-3.65-3.25-8.8-3.25h-12.06v21.34c0,1.19-.56,1.75-1.75,1.75h-8.57c-1.19,0-1.75-.56-1.75-1.75v-52.03c0-1.19.56-1.75,1.75-1.75h8.57Z"/>
          <path class="cls-6" d="m202.69,469.74h-10.07c-1.42,0-2.06-.29-2.73-1.26l-14.66-18.78c-1.94-2.54-3.35-3.05-8.39-3.05h-11.53v20.81c0,1.49-.79,2.27-2.27,2.27h-8.57c-1.49,0-2.27-.79-2.27-2.27v-52.03c0-1.49.79-2.27,2.27-2.27h8.57c1.49,0,2.27.79,2.27,2.27v20.17h10.5c5.26,0,6.43-.42,8.38-2.97l13.8-18.24c.68-.97,1.27-1.24,2.72-1.24h9.91c.74,0,1.34.35,1.62.93s.18,1.28-.26,1.83l-15.38,19.9c-1.68,2.22-3.04,3.77-4.31,4.93,1.93,1.32,3.71,3.06,5.57,5.45l16.26,20.62c.43.42.56,1.17.29,1.83-.28.68-.93,1.09-1.74,1.09Zm-48.43-24.14h12.58c5.35,0,7.07.65,9.22,3.46l14.67,18.79c.45.65.75.83,1.88.83h10.07c.37,0,.64-.16.76-.44.11-.25.06-.56-.1-.72l-16.3-20.67c-1.97-2.53-3.84-4.3-5.89-5.59l-.61-.38.55-.46c1.36-1.15,2.8-2.76,4.68-5.23l15.39-19.91c.19-.24.24-.51.14-.72-.1-.21-.34-.33-.67-.33h-9.91c-1.24,0-1.45.21-1.87.81l-13.81,18.26c-2.18,2.84-3.64,3.38-9.22,3.38h-11.55v-21.23c0-.9-.32-1.22-1.22-1.22h-8.57c-.9,0-1.22.32-1.22,1.22v52.03c0,.9.32,1.22,1.22,1.22h8.57c.9,0,1.22-.32,1.22-1.22v-21.86Z"/>
        </g>
        <g>
          <path class="cls-6" d="m220.77,413.69c1.19,0,1.75.55,1.75,1.75v52.03c0,1.19-.56,1.75-1.75,1.75h-8.57c-1.19,0-1.75-.56-1.75-1.75v-52.03c0-1.19.56-1.75,1.75-1.75h8.57Z"/>
          <path class="cls-6" d="m220.77,469.74h-8.57c-1.49,0-2.27-.79-2.27-2.27v-52.03c0-1.49.79-2.27,2.27-2.27h8.57c1.49,0,2.27.79,2.27,2.27v52.03c0,1.49-.79,2.27-2.27,2.27Zm-8.57-55.52c-.9,0-1.22.32-1.22,1.22v52.03c0,.9.32,1.22,1.22,1.22h8.57c.9,0,1.22-.32,1.22-1.22v-52.03c0-.9-.32-1.22-1.22-1.22h-8.57Z"/>
        </g>
        <g>
          <path class="cls-6" d="m243.29,413.69c1.19,0,1.75.55,1.75,1.75v31.65c0,8.41,2.38,10.87,10.55,10.87h32.12c1.11,0,1.75.55,1.75,1.75v7.77c0,1.19-.63,1.75-1.75,1.75h-32.52c-16.1,0-22.21-5.71-22.21-20.94v-32.84c0-1.19.56-1.75,1.75-1.75h8.57Z"/>
          <path class="cls-6" d="m287.71,469.74h-32.52c-16.36,0-22.74-6.02-22.74-21.47v-32.84c0-1.49.79-2.27,2.27-2.27h8.57c1.49,0,2.27.79,2.27,2.27v31.65c0,8.12,2.15,10.34,10.02,10.34h32.12c1.44,0,2.27.83,2.27,2.27v7.77c0,1.44-.83,2.27-2.27,2.27Zm-52.98-55.52c-.9,0-1.22.32-1.22,1.22v32.84c0,14.88,5.88,20.41,21.68,20.41h32.52c.85,0,1.22-.36,1.22-1.22v-7.77c0-.86-.35-1.22-1.22-1.22h-32.12c-8.49,0-11.08-2.66-11.08-11.39v-31.65c0-.9-.32-1.22-1.22-1.22h-8.57Z"/>
        </g>
        <g>
          <path class="cls-6" d="m305.71,413.69c1.19,0,1.75.55,1.75,1.75v31.65c0,8.41,2.38,10.87,10.55,10.87h32.12c1.11,0,1.75.55,1.75,1.75v7.77c0,1.19-.63,1.75-1.75,1.75h-32.52c-16.1,0-22.21-5.71-22.21-20.94v-32.84c0-1.19.56-1.75,1.75-1.75h8.57Z"/>
          <path class="cls-6" d="m350.12,469.74h-32.52c-16.36,0-22.74-6.02-22.74-21.47v-32.84c0-1.49.79-2.27,2.27-2.27h8.57c1.49,0,2.27.79,2.27,2.27v31.65c0,8.12,2.15,10.34,10.02,10.34h32.12c1.44,0,2.27.83,2.27,2.27v7.77c0,1.44-.83,2.27-2.27,2.27Zm-52.98-55.52c-.9,0-1.22.32-1.22,1.22v32.84c0,14.88,5.88,20.41,21.68,20.41h32.52c.85,0,1.22-.36,1.22-1.22v-7.77c0-.86-.35-1.22-1.22-1.22h-32.12c-8.49,0-11.08-2.66-11.08-11.39v-31.65c0-.9-.32-1.22-1.22-1.22h-8.57Z"/>
        </g>
        <g>
          <path class="cls-6" d="m394.22,413.69c4.12,0,6.5,1.19,9.12,6.03l26.25,47.67c.56,1.11.32,1.82-.95,1.82h-10.07c-1.03,0-1.51-.24-1.82-.95l-5.23-9.68h-37.99l-5.16,9.68c-.4.71-.79.95-1.82.95h-10.39c-1.27,0-1.51-.71-.95-1.82l26.02-47.67c2.54-4.84,5-6.03,8.33-6.03h4.68Zm11.66,34.58l-12.29-22.76c-.24-.4-.56-.55-.95-.55h-.48c-.4,0-.63.16-.87.55l-12.21,22.76h26.81Z"/>
          <path class="cls-6" d="m428.64,469.74h-10.07c-1.05,0-1.84-.21-2.31-1.26l-5.07-9.36h-37.36l-5.01,9.4c-.51.91-1.1,1.23-2.29,1.23h-10.39c-.77,0-1.29-.23-1.57-.68-.3-.48-.25-1.12.15-1.91l26.02-47.68c2.74-5.23,5.5-6.3,8.79-6.3h4.68c4.62,0,7.04,1.59,9.59,6.3l26.25,47.66c.4.81.45,1.45.16,1.93-.28.45-.81.68-1.57.68Zm-55.44-11.68h38.62l5.38,9.95c.22.49.45.68,1.36.68h10.07c.42,0,.62-.09.67-.18.06-.1.05-.4-.19-.88l-26.24-47.65c-2.63-4.87-4.98-5.76-8.66-5.76h-4.68c-2.99,0-5.35.96-7.86,5.75l-26.02,47.68c-.24.47-.25.76-.19.87.05.08.26.18.67.18h10.39c.9,0,1.09-.19,1.36-.68l5.3-9.95Zm33.56-9.26h-28.57l12.63-23.54c.24-.4.59-.83,1.34-.83h.48c.61,0,1.08.27,1.4.81l12.73,23.56Zm-26.81-1.05h25.04l-11.87-21.99c-.14-.23-.29-.28-.49-.28h-.48c-.16,0-.25.01-.42.3l-11.79,21.96Z"/>
        </g>
        <g>
          <path class="cls-6" d="m488.44,413.69c4.36,0,6.27,1.9,6.35,6.03v7.61c0,3.89-.71,5.16-3.97,6.74l-41.96,21.49c-.56.24-.71.63-.71,1.19v.63c0,.4.32.63.79.63h43.62c1.11,0,1.75.63,1.75,1.75v7.69c0,1.19-.63,1.75-1.75,1.75h-51.4c-4.28,0-6.27-1.9-6.27-6.03v-7.69c0-3.89.56-5.16,3.73-6.66l41.8-21.5c.48-.32.71-.63.71-1.19v-.63c0-.4-.32-.63-.79-.63h-43.15c-1.19,0-1.75-.63-1.75-1.75v-7.69c0-1.19.56-1.75,1.75-1.75h51.24Z"/>
          <path class="cls-6" d="m492.56,469.74h-51.4c-4.57,0-6.79-2.14-6.79-6.56v-7.69c0-3.98.56-5.49,4.03-7.14l41.78-21.49c.36-.24.43-.42.43-.72v-.63c0-.1-.2-.11-.27-.11h-43.15c-1.44,0-2.27-.83-2.27-2.27v-7.69c0-1.49.79-2.27,2.27-2.27h51.24c4.6,0,6.79,2.08,6.87,6.55v7.62c0,4.13-.84,5.55-4.26,7.22l-41.95,21.49c-.31.13-.43.26-.43.72v.63c0,.1.2.11.27.11h43.62c1.4,0,2.27.87,2.27,2.27v7.69c0,1.44-.83,2.27-2.27,2.27Zm-55.36-55.52c-.9,0-1.22.32-1.22,1.22v7.69c0,.86.35,1.22,1.22,1.22h43.15c.78,0,1.32.48,1.32,1.16v.63c0,.88-.48,1.32-.95,1.63l-41.85,21.53c-2.9,1.38-3.44,2.36-3.44,6.19v7.69c0,3.8,1.77,5.5,5.74,5.5h51.4c.85,0,1.22-.36,1.22-1.22v-7.69c0-.82-.4-1.22-1.22-1.22h-43.62c-.78,0-1.32-.48-1.32-1.16v-.63c0-.3,0-1.23,1.03-1.68l41.92-21.48c3.06-1.49,3.68-2.55,3.68-6.27v-7.61c-.07-3.85-1.81-5.5-5.82-5.5h-51.24Z"/>
        </g>
      </g>
      <g>
        <g>
          <path class="cls-6" d="m141.93,491.33c.78,0,1.22.39,1.22,1.22v5.39c0,.78-.44,1.22-1.22,1.22h-27.85c-2,0-2.95.94-2.95,3v1.89c0,2,.89,2.83,2.95,2.83h20.79c6.23,0,9.73,3.56,9.73,9.78v4.5c0,5.73-3.45,9.06-9.84,9.06h-30.8c-.83,0-1.22-.39-1.22-1.22v-5.39c0-.78.39-1.22,1.22-1.22h29.18c1.95,0,2.95-.95,2.95-3v-2.28c0-2-.83-2.83-2.89-2.83h-20.85c-6.23,0-9.67-3.56-9.67-9.78v-4.11c0-5.73,3.39-9.06,9.78-9.06h29.46Z"/>
          <path class="cls-6" d="m134.75,530.77h-30.8c-1.13,0-1.75-.62-1.75-1.75v-5.39c0-1.1.65-1.75,1.75-1.75h29.18c1.7,0,2.42-.74,2.42-2.47v-2.28c0-1.72-.6-2.31-2.36-2.31h-20.85c-6.48,0-10.2-3.76-10.2-10.31v-4.11c0-6.09,3.76-9.59,10.31-9.59h29.46c1.1,0,1.75.65,1.75,1.75v5.39c0,1.06-.69,1.75-1.75,1.75h-27.85c-1.72,0-2.42.72-2.42,2.47v1.89c0,1.7.63,2.31,2.42,2.31h20.79c6.52,0,10.26,3.76,10.26,10.31v4.5c0,6.09-3.78,9.59-10.37,9.59Zm-30.8-7.84c-.51,0-.7.18-.7.7v5.39c0,.55.15.7.7.7h30.8c6,0,9.31-3.03,9.31-8.53v-4.5c0-5.97-3.27-9.26-9.2-9.26h-20.79c-2.37,0-3.47-1.07-3.47-3.36v-1.89c0-2.34,1.17-3.53,3.47-3.53h27.85c.49,0,.7-.21.7-.7v-5.39c0-.51-.18-.7-.7-.7h-29.46c-5.97,0-9.26,3.03-9.26,8.53v4.11c0,5.97,3.25,9.26,9.14,9.26h20.85c2.33,0,3.42,1.07,3.42,3.36v2.28c0,2.31-1.2,3.53-3.47,3.53h-29.18Z"/>
        </g>
        <g>
          <path class="cls-6" d="m182.45,491.33c8.5,0,11.95,3.95,11.95,11.4v4.17c0,7.5-3.45,11.62-11.95,11.62h-23.01v10.51c0,.83-.39,1.22-1.22,1.22h-6c-.83,0-1.22-.39-1.22-1.22v-36.02c0-1.11.56-1.67,1.67-1.67h29.79Zm-1.72,19.51c3.78,0,5.17-1.5,5.17-4.78v-2.11c0-3.33-1.39-4.84-5.17-4.84h-20.57c-.5,0-.72.22-.72.67v11.06h21.29Z"/>
          <path class="cls-6" d="m158.21,530.77h-6c-1.13,0-1.75-.62-1.75-1.75v-36.02c0-1.39.8-2.19,2.2-2.19h29.79c8.4,0,12.48,3.9,12.48,11.92v4.17c0,8.17-4.08,12.14-12.48,12.14h-22.49v9.98c0,1.13-.62,1.75-1.75,1.75Zm-5.56-38.91c-.82,0-1.14.32-1.14,1.14v36.02c0,.55.15.7.69.7h6c.55,0,.7-.15.7-.7v-11.03h23.54c7.79,0,11.42-3.52,11.42-11.09v-4.17c0-7.52-3.52-10.87-11.42-10.87h-29.79Zm28.07,19.51h-21.82v-11.59c0-.75.47-1.19,1.25-1.19h20.57c3.94,0,5.7,1.65,5.7,5.36v2.11c0,3.67-1.76,5.31-5.7,5.31Zm-20.76-1.05h20.76c3.38,0,4.64-1.15,4.64-4.25v-2.11c0-3.14-1.26-4.31-4.64-4.31h-20.57c-.12,0-.17.02-.19.03,0,0,0,.04,0,.11v10.53Z"/>
        </g>
        <g>
          <path class="cls-6" d="m232.21,491.33c11.28,0,15.56,4,15.56,14.67v9.56c0,10.67-4.28,14.67-15.56,14.67h-17.12c-11.28,0-15.56-4.06-15.56-14.67v-9.56c0-10.62,4.28-14.67,15.56-14.67h17.12Zm-24.24,23.62c0,5.84,1.61,7.45,7.39,7.45h16.51c5.78,0,7.39-1.61,7.39-7.45v-8.34c0-5.84-1.61-7.45-7.39-7.45h-16.51c-5.78,0-7.39,1.61-7.39,7.45v8.34Z"/>
          <path class="cls-6" d="m232.21,530.77h-17.12c-11.58,0-16.09-4.26-16.09-15.2v-9.56c0-10.94,4.51-15.2,16.09-15.2h17.12c11.58,0,16.09,4.26,16.09,15.2v9.56c0,10.94-4.51,15.2-16.09,15.2Zm-17.12-38.91c-10.96,0-15.04,3.83-15.04,14.15v9.56c0,10.31,4.08,14.15,15.04,14.15h17.12c10.96,0,15.04-3.83,15.04-14.15v-9.56c0-10.31-4.08-14.15-15.04-14.15h-17.12Zm16.79,31.07h-16.51c-6.07,0-7.92-1.86-7.92-7.98v-8.34c0-6.11,1.85-7.98,7.92-7.98h16.51c6.07,0,7.92,1.86,7.92,7.98v8.34c0,6.11-1.85,7.98-7.92,7.98Zm-16.51-23.24c-5.52,0-6.87,1.36-6.87,6.92v8.34c0,5.56,1.35,6.92,6.87,6.92h16.51c5.52,0,6.87-1.36,6.87-6.92v-8.34c0-5.56-1.35-6.92-6.87-6.92h-16.51Z"/>
        </g>
        <g>
          <path class="cls-6" d="m286.24,491.33c8.28,0,11.95,3.72,11.95,11.4v3.22c0,6.45-2.56,10.23-8.06,11.34l9.28,11.51c.44.56.17,1.45-.72,1.45h-7.45c-.89,0-1.17-.22-1.56-.72l-8.84-11.28h-17.62v10.78c0,.83-.39,1.22-1.22,1.22h-6c-.83,0-1.22-.39-1.22-1.22v-36.02c0-1.11.56-1.67,1.67-1.67h29.79Zm-1.72,19.57c3.78,0,5.17-1.33,5.17-4.67v-2.33c0-3.39-1.45-4.78-5.17-4.78h-20.57c-.5,0-.72.17-.72.61v11.17h21.29Z"/>
          <path class="cls-6" d="m298.69,530.77h-7.45c-1.06,0-1.5-.31-1.97-.93l-8.68-11.08h-16.84v10.26c0,1.13-.62,1.75-1.75,1.75h-6c-1.13,0-1.75-.62-1.75-1.75v-36.02c0-1.39.8-2.19,2.2-2.19h29.79c8.4,0,12.48,3.9,12.48,11.92v3.22c0,6.48-2.5,10.31-7.65,11.66l8.75,10.85c.35.44.42,1.03.19,1.52-.23.49-.73.78-1.32.78Zm-35.99-13.06h18.41l9,11.49c.31.4.44.52,1.14.52h7.45c.13,0,.3-.03.37-.18.06-.12.04-.28-.06-.41l-9.83-12.18.85-.17c5.21-1.05,7.64-4.49,7.64-10.82v-3.22c0-7.52-3.52-10.87-11.42-10.87h-29.79c-.82,0-1.14.32-1.14,1.14v36.02c0,.55.15.7.69.7h6c.55,0,.7-.15.7-.7v-11.31Zm21.82-6.28h-21.82v-11.7c0-.43.16-1.14,1.25-1.14h20.57c3.99,0,5.7,1.59,5.7,5.31v2.33c0,3.69-1.65,5.2-5.7,5.2Zm-20.76-1.05h20.76c3.43,0,4.64-1.08,4.64-4.14v-2.33c0-3.14-1.21-4.25-4.64-4.25h-20.57c-.1,0-.16,0-.19.02,0,.01,0,.04,0,.07v10.65Z"/>
        </g>
        <g>
          <path class="cls-6" d="m346.67,491.33c.83,0,1.28.39,1.28,1.22v5.45c0,.83-.44,1.22-1.28,1.22h-17.51v29.79c0,.83-.33,1.22-1.17,1.22h-6.06c-.78,0-1.22-.39-1.22-1.22v-29.79h-17.51c-.78,0-1.22-.39-1.22-1.22v-5.45c0-.83.44-1.22,1.22-1.22h43.47Z"/>
          <path class="cls-6" d="m327.99,530.77h-6.06c-1.1,0-1.75-.65-1.75-1.75v-29.27h-16.98c-1.1,0-1.75-.65-1.75-1.75v-5.45c0-1.1.65-1.75,1.75-1.75h43.47c1.15,0,1.81.64,1.81,1.75v5.45c0,1.11-.66,1.75-1.81,1.75h-16.98v29.27c0,1.45-.92,1.75-1.7,1.75Zm-24.79-38.91c-.51,0-.7.18-.7.7v5.45c0,.51.18.7.7.7h18.04v30.32c0,.51.18.7.69.7h6.06c.49,0,.64-.1.64-.7v-30.32h18.04c.63,0,.75-.25.75-.7v-5.45c0-.45-.12-.7-.75-.7h-43.47Z"/>
        </g>
        <g>
          <path class="cls-6" d="m391.53,491.33c.78,0,1.22.39,1.22,1.22v5.39c0,.78-.44,1.22-1.22,1.22h-27.85c-2,0-2.95.94-2.95,3v1.89c0,2,.89,2.83,2.95,2.83h20.79c6.23,0,9.73,3.56,9.73,9.78v4.5c0,5.73-3.45,9.06-9.84,9.06h-30.8c-.83,0-1.22-.39-1.22-1.22v-5.39c0-.78.39-1.22,1.22-1.22h29.18c1.95,0,2.95-.95,2.95-3v-2.28c0-2-.83-2.83-2.89-2.83h-20.85c-6.23,0-9.67-3.56-9.67-9.78v-4.11c0-5.73,3.39-9.06,9.78-9.06h29.46Z"/>
          <path class="cls-6" d="m384.36,530.77h-30.8c-1.13,0-1.75-.62-1.75-1.75v-5.39c0-1.1.65-1.75,1.75-1.75h29.18c1.7,0,2.42-.74,2.42-2.47v-2.28c0-1.72-.6-2.31-2.36-2.31h-20.85c-6.48,0-10.2-3.76-10.2-10.31v-4.11c0-6.09,3.76-9.59,10.31-9.59h29.46c1.1,0,1.75.65,1.75,1.75v5.39c0,1.06-.69,1.75-1.75,1.75h-27.85c-1.72,0-2.42.72-2.42,2.47v1.89c0,1.7.63,2.31,2.42,2.31h20.79c6.52,0,10.26,3.76,10.26,10.31v4.5c0,6.09-3.78,9.59-10.37,9.59Zm-30.8-7.84c-.51,0-.7.18-.7.7v5.39c0,.55.15.7.7.7h30.8c6,0,9.31-3.03,9.31-8.53v-4.5c0-5.97-3.27-9.26-9.2-9.26h-20.79c-2.37,0-3.47-1.07-3.47-3.36v-1.89c0-2.34,1.17-3.53,3.47-3.53h27.85c.49,0,.7-.21.7-.7v-5.39c0-.51-.18-.7-.7-.7h-29.46c-5.97,0-9.26,3.03-9.26,8.53v4.11c0,5.97,3.25,9.26,9.14,9.26h20.85c2.33,0,3.42,1.07,3.42,3.36v2.28c0,2.31-1.2,3.53-3.47,3.53h-29.18Z"/>
        </g>
      </g>
    </g>
  </g>
</svg>